<mxfile host="app.diagrams.net" modified="2024-04-24T15:35:32.726Z" agent="Mozilla/5.0 (Windows NT 10.0; Win64; x64) AppleWebKit/537.36 (KHTML, like Gecko) Chrome/124.0.0.0 Safari/537.36" etag="EejA8Lb2uh-_b8s8bMhZ" version="24.3.0" type="github">
  <diagram name="Page-1" id="C73sUpdHnXt16KP5BIeg">
    <mxGraphModel dx="1923" dy="1889" grid="1" gridSize="10" guides="1" tooltips="1" connect="1" arrows="1" fold="1" page="1" pageScale="1" pageWidth="850" pageHeight="1100" math="0" shadow="0">
      <root>
        <mxCell id="0" />
        <mxCell id="1" parent="0" />
        <mxCell id="xsKrtuF8R7khBSsW89uz-1" style="edgeStyle=orthogonalEdgeStyle;rounded=0;orthogonalLoop=1;jettySize=auto;html=1;exitX=0;exitY=0.5;exitDx=0;exitDy=0;" parent="1" source="xsKrtuF8R7khBSsW89uz-4" edge="1">
          <mxGeometry relative="1" as="geometry">
            <mxPoint x="-510" y="-570" as="targetPoint" />
          </mxGeometry>
        </mxCell>
        <mxCell id="xsKrtuF8R7khBSsW89uz-2" style="edgeStyle=orthogonalEdgeStyle;rounded=0;orthogonalLoop=1;jettySize=auto;html=1;exitX=0;exitY=1;exitDx=0;exitDy=0;" parent="1" source="xsKrtuF8R7khBSsW89uz-4" target="xsKrtuF8R7khBSsW89uz-8" edge="1">
          <mxGeometry relative="1" as="geometry" />
        </mxCell>
        <mxCell id="xsKrtuF8R7khBSsW89uz-3" style="edgeStyle=orthogonalEdgeStyle;rounded=0;orthogonalLoop=1;jettySize=auto;html=1;exitX=1;exitY=0.5;exitDx=0;exitDy=0;entryX=0;entryY=0.5;entryDx=0;entryDy=0;" parent="1" source="xsKrtuF8R7khBSsW89uz-4" target="xsKrtuF8R7khBSsW89uz-89" edge="1">
          <mxGeometry relative="1" as="geometry" />
        </mxCell>
        <mxCell id="xsKrtuF8R7khBSsW89uz-4" value="Agent" style="rounded=0;whiteSpace=wrap;html=1;fillColor=#d5e8d4;strokeColor=#82b366;" parent="1" vertex="1">
          <mxGeometry x="-430" y="-600" width="120" height="60" as="geometry" />
        </mxCell>
        <mxCell id="xsKrtuF8R7khBSsW89uz-5" value="Agent_ID" style="ellipse;whiteSpace=wrap;html=1;fillColor=#dae8fc;strokeColor=#6c8ebf;" parent="1" vertex="1">
          <mxGeometry x="-450" y="-440" width="120" height="60" as="geometry" />
        </mxCell>
        <mxCell id="xsKrtuF8R7khBSsW89uz-6" value="Commision_Rate" style="ellipse;whiteSpace=wrap;html=1;fillColor=#dae8fc;strokeColor=#6c8ebf;" parent="1" vertex="1">
          <mxGeometry x="-630" y="-610" width="120" height="60" as="geometry" />
        </mxCell>
        <mxCell id="xsKrtuF8R7khBSsW89uz-7" value="A_Name" style="ellipse;whiteSpace=wrap;html=1;fillColor=#dae8fc;strokeColor=#6c8ebf;" parent="1" vertex="1">
          <mxGeometry x="-420" y="-720" width="120" height="60" as="geometry" />
        </mxCell>
        <mxCell id="xsKrtuF8R7khBSsW89uz-8" value="PhoneNumber" style="ellipse;whiteSpace=wrap;html=1;fillColor=#dae8fc;strokeColor=#6c8ebf;" parent="1" vertex="1">
          <mxGeometry x="-620" y="-450" width="120" height="60" as="geometry" />
        </mxCell>
        <mxCell id="xsKrtuF8R7khBSsW89uz-9" value="" style="edgeStyle=orthogonalEdgeStyle;rounded=0;orthogonalLoop=1;jettySize=auto;html=1;" parent="1" source="xsKrtuF8R7khBSsW89uz-18" target="xsKrtuF8R7khBSsW89uz-24" edge="1">
          <mxGeometry relative="1" as="geometry" />
        </mxCell>
        <mxCell id="xsKrtuF8R7khBSsW89uz-10" style="edgeStyle=orthogonalEdgeStyle;rounded=0;orthogonalLoop=1;jettySize=auto;html=1;exitX=1;exitY=0.75;exitDx=0;exitDy=0;entryX=0;entryY=0.5;entryDx=0;entryDy=0;" parent="1" source="xsKrtuF8R7khBSsW89uz-18" target="xsKrtuF8R7khBSsW89uz-28" edge="1">
          <mxGeometry relative="1" as="geometry" />
        </mxCell>
        <mxCell id="xsKrtuF8R7khBSsW89uz-11" style="edgeStyle=orthogonalEdgeStyle;rounded=0;orthogonalLoop=1;jettySize=auto;html=1;exitX=0.75;exitY=1;exitDx=0;exitDy=0;" parent="1" source="xsKrtuF8R7khBSsW89uz-18" target="xsKrtuF8R7khBSsW89uz-27" edge="1">
          <mxGeometry relative="1" as="geometry" />
        </mxCell>
        <mxCell id="xsKrtuF8R7khBSsW89uz-12" style="edgeStyle=orthogonalEdgeStyle;rounded=0;orthogonalLoop=1;jettySize=auto;html=1;exitX=0.5;exitY=0;exitDx=0;exitDy=0;entryX=0.5;entryY=1;entryDx=0;entryDy=0;" parent="1" source="xsKrtuF8R7khBSsW89uz-18" target="xsKrtuF8R7khBSsW89uz-21" edge="1">
          <mxGeometry relative="1" as="geometry" />
        </mxCell>
        <mxCell id="xsKrtuF8R7khBSsW89uz-13" style="edgeStyle=orthogonalEdgeStyle;rounded=0;orthogonalLoop=1;jettySize=auto;html=1;exitX=0.75;exitY=0;exitDx=0;exitDy=0;entryX=0;entryY=1;entryDx=0;entryDy=0;" parent="1" source="xsKrtuF8R7khBSsW89uz-18" target="xsKrtuF8R7khBSsW89uz-25" edge="1">
          <mxGeometry relative="1" as="geometry" />
        </mxCell>
        <mxCell id="xsKrtuF8R7khBSsW89uz-14" style="edgeStyle=orthogonalEdgeStyle;rounded=0;orthogonalLoop=1;jettySize=auto;html=1;exitX=1;exitY=0;exitDx=0;exitDy=0;entryX=0;entryY=0.5;entryDx=0;entryDy=0;" parent="1" source="xsKrtuF8R7khBSsW89uz-18" target="xsKrtuF8R7khBSsW89uz-29" edge="1">
          <mxGeometry relative="1" as="geometry">
            <Array as="points">
              <mxPoint x="300" y="-800" />
              <mxPoint x="300" y="-940" />
            </Array>
          </mxGeometry>
        </mxCell>
        <mxCell id="xsKrtuF8R7khBSsW89uz-15" style="edgeStyle=orthogonalEdgeStyle;rounded=0;orthogonalLoop=1;jettySize=auto;html=1;exitX=0;exitY=0.5;exitDx=0;exitDy=0;entryX=1;entryY=0.5;entryDx=0;entryDy=0;" parent="1" source="xsKrtuF8R7khBSsW89uz-18" edge="1">
          <mxGeometry relative="1" as="geometry">
            <mxPoint x="-10.000000000021828" y="-770" as="targetPoint" />
          </mxGeometry>
        </mxCell>
        <mxCell id="xsKrtuF8R7khBSsW89uz-16" style="edgeStyle=orthogonalEdgeStyle;rounded=0;orthogonalLoop=1;jettySize=auto;html=1;exitX=0;exitY=0.75;exitDx=0;exitDy=0;entryX=1;entryY=0.5;entryDx=0;entryDy=0;" parent="1" source="xsKrtuF8R7khBSsW89uz-18" target="xsKrtuF8R7khBSsW89uz-20" edge="1">
          <mxGeometry relative="1" as="geometry" />
        </mxCell>
        <mxCell id="xsKrtuF8R7khBSsW89uz-17" style="edgeStyle=orthogonalEdgeStyle;rounded=0;orthogonalLoop=1;jettySize=auto;html=1;exitX=1;exitY=1;exitDx=0;exitDy=0;entryX=0.5;entryY=0;entryDx=0;entryDy=0;" parent="1" source="xsKrtuF8R7khBSsW89uz-18" target="xsKrtuF8R7khBSsW89uz-91" edge="1">
          <mxGeometry relative="1" as="geometry" />
        </mxCell>
        <mxCell id="xsKrtuF8R7khBSsW89uz-18" value="Worker" style="rounded=0;whiteSpace=wrap;html=1;fillColor=#d5e8d4;strokeColor=#82b366;" parent="1" vertex="1">
          <mxGeometry x="140" y="-800" width="120" height="50" as="geometry" />
        </mxCell>
        <mxCell id="xsKrtuF8R7khBSsW89uz-19" value="W_Name" style="ellipse;whiteSpace=wrap;html=1;fillColor=#dae8fc;strokeColor=#6c8ebf;" parent="1" vertex="1">
          <mxGeometry x="-130" y="-800" width="120" height="60" as="geometry" />
        </mxCell>
        <mxCell id="xsKrtuF8R7khBSsW89uz-20" value="BirthDate" style="ellipse;whiteSpace=wrap;html=1;fillColor=#dae8fc;strokeColor=#6c8ebf;" parent="1" vertex="1">
          <mxGeometry x="-110" y="-640" width="120" height="60" as="geometry" />
        </mxCell>
        <mxCell id="xsKrtuF8R7khBSsW89uz-21" value="Gender" style="ellipse;whiteSpace=wrap;html=1;fillColor=#dae8fc;strokeColor=#6c8ebf;" parent="1" vertex="1">
          <mxGeometry x="140" y="-1060" width="120" height="60" as="geometry" />
        </mxCell>
        <mxCell id="xsKrtuF8R7khBSsW89uz-22" value="PhoneNumber" style="ellipse;whiteSpace=wrap;html=1;fillColor=#dae8fc;strokeColor=#6c8ebf;" parent="1" vertex="1">
          <mxGeometry x="20" y="-1040" width="120" height="60" as="geometry" />
        </mxCell>
        <mxCell id="xsKrtuF8R7khBSsW89uz-23" value="Nationality" style="ellipse;whiteSpace=wrap;html=1;fillColor=#dae8fc;strokeColor=#6c8ebf;" parent="1" vertex="1">
          <mxGeometry x="440" y="-880" width="120" height="60" as="geometry" />
        </mxCell>
        <mxCell id="xsKrtuF8R7khBSsW89uz-24" value="Worker_ID" style="ellipse;whiteSpace=wrap;html=1;fillColor=#dae8fc;strokeColor=#6c8ebf;" parent="1" vertex="1">
          <mxGeometry x="240" y="-590" width="120" height="60" as="geometry" />
        </mxCell>
        <mxCell id="xsKrtuF8R7khBSsW89uz-25" value="Experience" style="ellipse;whiteSpace=wrap;html=1;fillColor=#dae8fc;strokeColor=#6c8ebf;" parent="1" vertex="1">
          <mxGeometry x="260" y="-1030" width="120" height="60" as="geometry" />
        </mxCell>
        <mxCell id="xsKrtuF8R7khBSsW89uz-26" value="Skills" style="ellipse;whiteSpace=wrap;html=1;fillColor=#dae8fc;strokeColor=#6c8ebf;" parent="1" vertex="1">
          <mxGeometry x="120" y="-540" width="120" height="60" as="geometry" />
        </mxCell>
        <mxCell id="xsKrtuF8R7khBSsW89uz-27" value="PhoneNumber" style="ellipse;whiteSpace=wrap;html=1;fillColor=#dae8fc;strokeColor=#6c8ebf;" parent="1" vertex="1">
          <mxGeometry x="320" y="-690" width="120" height="60" as="geometry" />
        </mxCell>
        <mxCell id="xsKrtuF8R7khBSsW89uz-28" value="VisaApplication_ID" style="ellipse;whiteSpace=wrap;html=1;fillColor=#dae8fc;strokeColor=#6c8ebf;" parent="1" vertex="1">
          <mxGeometry x="480" y="-790" width="120" height="60" as="geometry" />
        </mxCell>
        <mxCell id="xsKrtuF8R7khBSsW89uz-29" value="LanguegeSpoken" style="ellipse;whiteSpace=wrap;html=1;fillColor=#dae8fc;strokeColor=#6c8ebf;" parent="1" vertex="1">
          <mxGeometry x="380" y="-970" width="120" height="60" as="geometry" />
        </mxCell>
        <mxCell id="xsKrtuF8R7khBSsW89uz-30" value="Agent_ID" style="ellipse;whiteSpace=wrap;html=1;fillColor=#dae8fc;strokeColor=#6c8ebf;" parent="1" vertex="1">
          <mxGeometry x="-50" y="-950" width="120" height="60" as="geometry" />
        </mxCell>
        <mxCell id="xsKrtuF8R7khBSsW89uz-31" style="edgeStyle=orthogonalEdgeStyle;rounded=0;orthogonalLoop=1;jettySize=auto;html=1;exitX=0;exitY=0.75;exitDx=0;exitDy=0;entryX=1;entryY=0.5;entryDx=0;entryDy=0;" parent="1" source="xsKrtuF8R7khBSsW89uz-34" target="xsKrtuF8R7khBSsW89uz-37" edge="1">
          <mxGeometry relative="1" as="geometry" />
        </mxCell>
        <mxCell id="xsKrtuF8R7khBSsW89uz-32" style="edgeStyle=orthogonalEdgeStyle;rounded=0;orthogonalLoop=1;jettySize=auto;html=1;exitX=0.5;exitY=1;exitDx=0;exitDy=0;" parent="1" source="xsKrtuF8R7khBSsW89uz-34" edge="1">
          <mxGeometry relative="1" as="geometry">
            <mxPoint x="120" y="5" as="targetPoint" />
          </mxGeometry>
        </mxCell>
        <mxCell id="xsKrtuF8R7khBSsW89uz-33" style="edgeStyle=orthogonalEdgeStyle;rounded=0;orthogonalLoop=1;jettySize=auto;html=1;exitX=1;exitY=0.5;exitDx=0;exitDy=0;entryX=0;entryY=0.5;entryDx=0;entryDy=0;" parent="1" source="xsKrtuF8R7khBSsW89uz-34" target="xsKrtuF8R7khBSsW89uz-41" edge="1">
          <mxGeometry relative="1" as="geometry" />
        </mxCell>
        <mxCell id="xsKrtuF8R7khBSsW89uz-34" value="Employer" style="rounded=0;whiteSpace=wrap;html=1;fillColor=#d5e8d4;strokeColor=#82b366;" parent="1" vertex="1">
          <mxGeometry x="60" y="-155" width="120" height="60" as="geometry" />
        </mxCell>
        <mxCell id="xsKrtuF8R7khBSsW89uz-35" value="Employer_ID" style="ellipse;whiteSpace=wrap;html=1;fillColor=#dae8fc;strokeColor=#6c8ebf;" parent="1" vertex="1">
          <mxGeometry x="-100" y="-325" width="120" height="60" as="geometry" />
        </mxCell>
        <mxCell id="xsKrtuF8R7khBSsW89uz-36" value="E_Passport" style="ellipse;whiteSpace=wrap;html=1;fillColor=#dae8fc;strokeColor=#6c8ebf;" parent="1" vertex="1">
          <mxGeometry x="-210" y="-260" width="120" height="60" as="geometry" />
        </mxCell>
        <mxCell id="xsKrtuF8R7khBSsW89uz-37" value="PhoneNumber" style="ellipse;whiteSpace=wrap;html=1;fillColor=#dae8fc;strokeColor=#6c8ebf;" parent="1" vertex="1">
          <mxGeometry x="-160" y="-140" width="120" height="60" as="geometry" />
        </mxCell>
        <mxCell id="xsKrtuF8R7khBSsW89uz-38" value="E_Name" style="ellipse;whiteSpace=wrap;html=1;fillColor=#dae8fc;strokeColor=#6c8ebf;" parent="1" vertex="1">
          <mxGeometry x="60" y="-365" width="120" height="60" as="geometry" />
        </mxCell>
        <mxCell id="xsKrtuF8R7khBSsW89uz-39" value="Compensation Offered" style="ellipse;whiteSpace=wrap;html=1;fillColor=#dae8fc;strokeColor=#6c8ebf;" parent="1" vertex="1">
          <mxGeometry x="-90" width="120" height="60" as="geometry" />
        </mxCell>
        <mxCell id="xsKrtuF8R7khBSsW89uz-40" value="JobRequirment" style="ellipse;whiteSpace=wrap;html=1;fillColor=#dae8fc;strokeColor=#6c8ebf;" parent="1" vertex="1">
          <mxGeometry x="60" y="5" width="120" height="60" as="geometry" />
        </mxCell>
        <mxCell id="xsKrtuF8R7khBSsW89uz-41" value="Agent_ID" style="ellipse;whiteSpace=wrap;html=1;fillColor=#dae8fc;strokeColor=#6c8ebf;" parent="1" vertex="1">
          <mxGeometry x="240" y="-155" width="120" height="60" as="geometry" />
        </mxCell>
        <mxCell id="xsKrtuF8R7khBSsW89uz-42" style="edgeStyle=orthogonalEdgeStyle;rounded=0;orthogonalLoop=1;jettySize=auto;html=1;exitX=0.5;exitY=1;exitDx=0;exitDy=0;" parent="1" source="xsKrtuF8R7khBSsW89uz-45" target="xsKrtuF8R7khBSsW89uz-54" edge="1">
          <mxGeometry relative="1" as="geometry" />
        </mxCell>
        <mxCell id="xsKrtuF8R7khBSsW89uz-43" style="edgeStyle=orthogonalEdgeStyle;rounded=0;orthogonalLoop=1;jettySize=auto;html=1;exitX=0.75;exitY=0;exitDx=0;exitDy=0;entryX=0;entryY=1;entryDx=0;entryDy=0;" parent="1" source="xsKrtuF8R7khBSsW89uz-45" target="xsKrtuF8R7khBSsW89uz-49" edge="1">
          <mxGeometry relative="1" as="geometry" />
        </mxCell>
        <mxCell id="xsKrtuF8R7khBSsW89uz-44" style="edgeStyle=orthogonalEdgeStyle;rounded=0;orthogonalLoop=1;jettySize=auto;html=1;exitX=0;exitY=0;exitDx=0;exitDy=0;entryX=1;entryY=1;entryDx=0;entryDy=0;" parent="1" source="xsKrtuF8R7khBSsW89uz-45" target="xsKrtuF8R7khBSsW89uz-52" edge="1">
          <mxGeometry relative="1" as="geometry" />
        </mxCell>
        <mxCell id="xsKrtuF8R7khBSsW89uz-45" value="Contract" style="rounded=0;whiteSpace=wrap;html=1;fillColor=#d5e8d4;strokeColor=#82b366;" parent="1" vertex="1">
          <mxGeometry x="450" y="130" width="120" height="60" as="geometry" />
        </mxCell>
        <mxCell id="xsKrtuF8R7khBSsW89uz-46" value="Contract_ID" style="ellipse;whiteSpace=wrap;html=1;fillColor=#dae8fc;strokeColor=#6c8ebf;" parent="1" vertex="1">
          <mxGeometry x="390" y="-20" width="120" height="60" as="geometry" />
        </mxCell>
        <mxCell id="xsKrtuF8R7khBSsW89uz-47" style="edgeStyle=orthogonalEdgeStyle;rounded=0;orthogonalLoop=1;jettySize=auto;html=1;exitX=0;exitY=0.5;exitDx=0;exitDy=0;entryX=1;entryY=0.5;entryDx=0;entryDy=0;" parent="1" source="xsKrtuF8R7khBSsW89uz-48" target="xsKrtuF8R7khBSsW89uz-45" edge="1">
          <mxGeometry relative="1" as="geometry" />
        </mxCell>
        <mxCell id="xsKrtuF8R7khBSsW89uz-48" value="Contract_Terms" style="ellipse;whiteSpace=wrap;html=1;fillColor=#dae8fc;strokeColor=#6c8ebf;" parent="1" vertex="1">
          <mxGeometry x="625" y="120" width="120" height="60" as="geometry" />
        </mxCell>
        <mxCell id="xsKrtuF8R7khBSsW89uz-49" value="Worker_ID" style="ellipse;whiteSpace=wrap;html=1;fillColor=#dae8fc;strokeColor=#6c8ebf;" parent="1" vertex="1">
          <mxGeometry x="550" width="120" height="60" as="geometry" />
        </mxCell>
        <mxCell id="xsKrtuF8R7khBSsW89uz-50" style="edgeStyle=orthogonalEdgeStyle;rounded=0;orthogonalLoop=1;jettySize=auto;html=1;exitX=1;exitY=0.5;exitDx=0;exitDy=0;entryX=0;entryY=0.25;entryDx=0;entryDy=0;" parent="1" source="xsKrtuF8R7khBSsW89uz-51" target="xsKrtuF8R7khBSsW89uz-45" edge="1">
          <mxGeometry relative="1" as="geometry" />
        </mxCell>
        <mxCell id="xsKrtuF8R7khBSsW89uz-51" value="Employer_ID" style="ellipse;whiteSpace=wrap;html=1;fillColor=#dae8fc;strokeColor=#6c8ebf;" parent="1" vertex="1">
          <mxGeometry x="270" y="190" width="120" height="60" as="geometry" />
        </mxCell>
        <mxCell id="xsKrtuF8R7khBSsW89uz-52" value="Salary" style="ellipse;whiteSpace=wrap;html=1;fillColor=#dae8fc;strokeColor=#6c8ebf;" parent="1" vertex="1">
          <mxGeometry x="270" y="50" width="120" height="60" as="geometry" />
        </mxCell>
        <mxCell id="xsKrtuF8R7khBSsW89uz-53" value="Working_Hours" style="ellipse;whiteSpace=wrap;html=1;fillColor=#dae8fc;strokeColor=#6c8ebf;" parent="1" vertex="1">
          <mxGeometry x="940" y="120" width="120" height="60" as="geometry" />
        </mxCell>
        <mxCell id="xsKrtuF8R7khBSsW89uz-54" value="Termination&lt;br&gt;Condition" style="ellipse;whiteSpace=wrap;html=1;fillColor=#dae8fc;strokeColor=#6c8ebf;" parent="1" vertex="1">
          <mxGeometry x="450" y="270" width="120" height="60" as="geometry" />
        </mxCell>
        <mxCell id="xsKrtuF8R7khBSsW89uz-55" style="edgeStyle=orthogonalEdgeStyle;rounded=0;orthogonalLoop=1;jettySize=auto;html=1;exitX=0.5;exitY=0;exitDx=0;exitDy=0;entryX=0.5;entryY=1;entryDx=0;entryDy=0;" parent="1" source="xsKrtuF8R7khBSsW89uz-57" target="xsKrtuF8R7khBSsW89uz-62" edge="1">
          <mxGeometry relative="1" as="geometry" />
        </mxCell>
        <mxCell id="xsKrtuF8R7khBSsW89uz-56" style="edgeStyle=orthogonalEdgeStyle;rounded=0;orthogonalLoop=1;jettySize=auto;html=1;exitX=1;exitY=0.5;exitDx=0;exitDy=0;entryX=0;entryY=0.5;entryDx=0;entryDy=0;" parent="1" source="xsKrtuF8R7khBSsW89uz-57" target="xsKrtuF8R7khBSsW89uz-58" edge="1">
          <mxGeometry relative="1" as="geometry" />
        </mxCell>
        <mxCell id="xsKrtuF8R7khBSsW89uz-57" value="Document" style="rounded=0;whiteSpace=wrap;html=1;fillColor=#d5e8d4;strokeColor=#82b366;" parent="1" vertex="1">
          <mxGeometry x="590" y="-370" width="120" height="60" as="geometry" />
        </mxCell>
        <mxCell id="xsKrtuF8R7khBSsW89uz-58" value="Worker_ID" style="ellipse;whiteSpace=wrap;html=1;fillColor=#dae8fc;strokeColor=#6c8ebf;" parent="1" vertex="1">
          <mxGeometry x="770" y="-370" width="120" height="60" as="geometry" />
        </mxCell>
        <mxCell id="xsKrtuF8R7khBSsW89uz-59" value="DocumentType" style="ellipse;whiteSpace=wrap;html=1;fillColor=#dae8fc;strokeColor=#6c8ebf;" parent="1" vertex="1">
          <mxGeometry x="450" y="-250" width="120" height="60" as="geometry" />
        </mxCell>
        <mxCell id="xsKrtuF8R7khBSsW89uz-60" value="Document_Number" style="ellipse;whiteSpace=wrap;html=1;fillColor=#dae8fc;strokeColor=#6c8ebf;" parent="1" vertex="1">
          <mxGeometry x="600" y="-250" width="120" height="60" as="geometry" />
        </mxCell>
        <mxCell id="xsKrtuF8R7khBSsW89uz-61" value="ExpirationDate" style="ellipse;whiteSpace=wrap;html=1;fillColor=#dae8fc;strokeColor=#6c8ebf;" parent="1" vertex="1">
          <mxGeometry x="410" y="-360" width="120" height="60" as="geometry" />
        </mxCell>
        <mxCell id="xsKrtuF8R7khBSsW89uz-62" value="Document_ID" style="ellipse;whiteSpace=wrap;html=1;fillColor=#dae8fc;strokeColor=#6c8ebf;" parent="1" vertex="1">
          <mxGeometry x="590" y="-480" width="120" height="60" as="geometry" />
        </mxCell>
        <mxCell id="xsKrtuF8R7khBSsW89uz-63" style="edgeStyle=orthogonalEdgeStyle;rounded=0;orthogonalLoop=1;jettySize=auto;html=1;entryX=0.583;entryY=1.017;entryDx=0;entryDy=0;entryPerimeter=0;" parent="1" source="xsKrtuF8R7khBSsW89uz-60" target="xsKrtuF8R7khBSsW89uz-57" edge="1">
          <mxGeometry relative="1" as="geometry" />
        </mxCell>
        <mxCell id="xsKrtuF8R7khBSsW89uz-64" style="edgeStyle=orthogonalEdgeStyle;rounded=0;orthogonalLoop=1;jettySize=auto;html=1;entryX=0.025;entryY=0.65;entryDx=0;entryDy=0;entryPerimeter=0;" parent="1" source="xsKrtuF8R7khBSsW89uz-61" target="xsKrtuF8R7khBSsW89uz-57" edge="1">
          <mxGeometry relative="1" as="geometry" />
        </mxCell>
        <mxCell id="xsKrtuF8R7khBSsW89uz-65" style="edgeStyle=orthogonalEdgeStyle;rounded=0;orthogonalLoop=1;jettySize=auto;html=1;exitX=0.25;exitY=1;exitDx=0;exitDy=0;entryX=0.675;entryY=0.067;entryDx=0;entryDy=0;entryPerimeter=0;" parent="1" source="xsKrtuF8R7khBSsW89uz-57" target="xsKrtuF8R7khBSsW89uz-59" edge="1">
          <mxGeometry relative="1" as="geometry" />
        </mxCell>
        <mxCell id="xsKrtuF8R7khBSsW89uz-66" style="edgeStyle=orthogonalEdgeStyle;rounded=0;orthogonalLoop=1;jettySize=auto;html=1;exitX=0.5;exitY=0;exitDx=0;exitDy=0;entryX=0.742;entryY=1.05;entryDx=0;entryDy=0;entryPerimeter=0;" parent="1" source="xsKrtuF8R7khBSsW89uz-45" target="xsKrtuF8R7khBSsW89uz-46" edge="1">
          <mxGeometry relative="1" as="geometry" />
        </mxCell>
        <mxCell id="xsKrtuF8R7khBSsW89uz-67" style="edgeStyle=orthogonalEdgeStyle;rounded=0;orthogonalLoop=1;jettySize=auto;html=1;exitX=0;exitY=0;exitDx=0;exitDy=0;entryX=0.8;entryY=0.983;entryDx=0;entryDy=0;entryPerimeter=0;" parent="1" source="xsKrtuF8R7khBSsW89uz-18" target="xsKrtuF8R7khBSsW89uz-30" edge="1">
          <mxGeometry relative="1" as="geometry" />
        </mxCell>
        <mxCell id="xsKrtuF8R7khBSsW89uz-68" style="edgeStyle=orthogonalEdgeStyle;rounded=0;orthogonalLoop=1;jettySize=auto;html=1;exitX=0.25;exitY=0;exitDx=0;exitDy=0;entryX=0.558;entryY=1.033;entryDx=0;entryDy=0;entryPerimeter=0;" parent="1" source="xsKrtuF8R7khBSsW89uz-18" target="xsKrtuF8R7khBSsW89uz-22" edge="1">
          <mxGeometry relative="1" as="geometry" />
        </mxCell>
        <mxCell id="xsKrtuF8R7khBSsW89uz-69" style="edgeStyle=orthogonalEdgeStyle;rounded=0;orthogonalLoop=1;jettySize=auto;html=1;exitX=1;exitY=0.25;exitDx=0;exitDy=0;entryX=0;entryY=0.667;entryDx=0;entryDy=0;entryPerimeter=0;" parent="1" source="xsKrtuF8R7khBSsW89uz-18" target="xsKrtuF8R7khBSsW89uz-23" edge="1">
          <mxGeometry relative="1" as="geometry" />
        </mxCell>
        <mxCell id="xsKrtuF8R7khBSsW89uz-70" style="edgeStyle=orthogonalEdgeStyle;rounded=0;orthogonalLoop=1;jettySize=auto;html=1;exitX=0.25;exitY=1;exitDx=0;exitDy=0;entryX=0.425;entryY=0.017;entryDx=0;entryDy=0;entryPerimeter=0;" parent="1" source="xsKrtuF8R7khBSsW89uz-18" target="xsKrtuF8R7khBSsW89uz-26" edge="1">
          <mxGeometry relative="1" as="geometry" />
        </mxCell>
        <mxCell id="xsKrtuF8R7khBSsW89uz-71" style="edgeStyle=orthogonalEdgeStyle;rounded=0;orthogonalLoop=1;jettySize=auto;html=1;exitX=0;exitY=0.25;exitDx=0;exitDy=0;entryX=1.008;entryY=0.65;entryDx=0;entryDy=0;entryPerimeter=0;" parent="1" source="xsKrtuF8R7khBSsW89uz-34" target="xsKrtuF8R7khBSsW89uz-36" edge="1">
          <mxGeometry relative="1" as="geometry" />
        </mxCell>
        <mxCell id="xsKrtuF8R7khBSsW89uz-72" style="edgeStyle=orthogonalEdgeStyle;rounded=0;orthogonalLoop=1;jettySize=auto;html=1;exitX=0.5;exitY=0;exitDx=0;exitDy=0;" parent="1" source="xsKrtuF8R7khBSsW89uz-34" target="xsKrtuF8R7khBSsW89uz-38" edge="1">
          <mxGeometry relative="1" as="geometry">
            <mxPoint x="120.03999999999996" y="-280.02" as="targetPoint" />
          </mxGeometry>
        </mxCell>
        <mxCell id="xsKrtuF8R7khBSsW89uz-73" style="edgeStyle=orthogonalEdgeStyle;rounded=0;orthogonalLoop=1;jettySize=auto;html=1;exitX=0.25;exitY=0;exitDx=0;exitDy=0;entryX=1;entryY=0.75;entryDx=0;entryDy=0;entryPerimeter=0;" parent="1" source="xsKrtuF8R7khBSsW89uz-34" target="xsKrtuF8R7khBSsW89uz-35" edge="1">
          <mxGeometry relative="1" as="geometry" />
        </mxCell>
        <mxCell id="xsKrtuF8R7khBSsW89uz-74" style="edgeStyle=orthogonalEdgeStyle;rounded=0;orthogonalLoop=1;jettySize=auto;html=1;exitX=0.5;exitY=0;exitDx=0;exitDy=0;entryX=0.417;entryY=1;entryDx=0;entryDy=0;entryPerimeter=0;" parent="1" source="xsKrtuF8R7khBSsW89uz-4" target="xsKrtuF8R7khBSsW89uz-7" edge="1">
          <mxGeometry relative="1" as="geometry" />
        </mxCell>
        <mxCell id="xsKrtuF8R7khBSsW89uz-75" style="edgeStyle=orthogonalEdgeStyle;rounded=0;orthogonalLoop=1;jettySize=auto;html=1;exitX=0.25;exitY=1;exitDx=0;exitDy=0;entryX=0.417;entryY=0.033;entryDx=0;entryDy=0;entryPerimeter=0;" parent="1" source="xsKrtuF8R7khBSsW89uz-4" target="xsKrtuF8R7khBSsW89uz-5" edge="1">
          <mxGeometry relative="1" as="geometry" />
        </mxCell>
        <mxCell id="xsKrtuF8R7khBSsW89uz-76" style="edgeStyle=orthogonalEdgeStyle;rounded=0;orthogonalLoop=1;jettySize=auto;html=1;exitX=0.5;exitY=1;exitDx=0;exitDy=0;entryX=0.5;entryY=0;entryDx=0;entryDy=0;" parent="1" source="xsKrtuF8R7khBSsW89uz-78" target="xsKrtuF8R7khBSsW89uz-79" edge="1">
          <mxGeometry relative="1" as="geometry">
            <mxPoint x="1005.310344827586" y="-550" as="targetPoint" />
          </mxGeometry>
        </mxCell>
        <mxCell id="xsKrtuF8R7khBSsW89uz-77" style="edgeStyle=orthogonalEdgeStyle;rounded=0;orthogonalLoop=1;jettySize=auto;html=1;exitX=1;exitY=0.5;exitDx=0;exitDy=0;" parent="1" source="xsKrtuF8R7khBSsW89uz-78" edge="1">
          <mxGeometry relative="1" as="geometry">
            <mxPoint x="1135" y="-629.9310344827586" as="targetPoint" />
          </mxGeometry>
        </mxCell>
        <mxCell id="xsKrtuF8R7khBSsW89uz-78" value="Payment Transaction" style="rounded=0;whiteSpace=wrap;html=1;fillColor=#d5e8d4;strokeColor=#82b366;" parent="1" vertex="1">
          <mxGeometry x="945" y="-660" width="120" height="60" as="geometry" />
        </mxCell>
        <mxCell id="xsKrtuF8R7khBSsW89uz-79" value="Transaction_Type" style="ellipse;whiteSpace=wrap;html=1;fillColor=#dae8fc;strokeColor=#6c8ebf;" parent="1" vertex="1">
          <mxGeometry x="945" y="-530" width="120" height="60" as="geometry" />
        </mxCell>
        <mxCell id="xsKrtuF8R7khBSsW89uz-80" value="Workder_ID" style="ellipse;whiteSpace=wrap;html=1;fillColor=#dae8fc;strokeColor=#6c8ebf;" parent="1" vertex="1">
          <mxGeometry x="745" y="-660" width="120" height="60" as="geometry" />
        </mxCell>
        <mxCell id="xsKrtuF8R7khBSsW89uz-81" value="Date" style="ellipse;whiteSpace=wrap;html=1;fillColor=#dae8fc;strokeColor=#6c8ebf;" parent="1" vertex="1">
          <mxGeometry x="1135" y="-660" width="120" height="60" as="geometry" />
        </mxCell>
        <mxCell id="xsKrtuF8R7khBSsW89uz-82" value="Transaction_ID" style="ellipse;whiteSpace=wrap;html=1;fillColor=#dae8fc;strokeColor=#6c8ebf;" parent="1" vertex="1">
          <mxGeometry x="865" y="-800" width="120" height="60" as="geometry" />
        </mxCell>
        <mxCell id="xsKrtuF8R7khBSsW89uz-83" value="Amount" style="ellipse;whiteSpace=wrap;html=1;fillColor=#dae8fc;strokeColor=#6c8ebf;" parent="1" vertex="1">
          <mxGeometry x="1035" y="-800" width="120" height="60" as="geometry" />
        </mxCell>
        <mxCell id="xsKrtuF8R7khBSsW89uz-84" style="edgeStyle=orthogonalEdgeStyle;rounded=0;orthogonalLoop=1;jettySize=auto;html=1;exitX=0;exitY=0.5;exitDx=0;exitDy=0;entryX=0.994;entryY=0.587;entryDx=0;entryDy=0;entryPerimeter=0;" parent="1" source="xsKrtuF8R7khBSsW89uz-78" target="xsKrtuF8R7khBSsW89uz-80" edge="1">
          <mxGeometry relative="1" as="geometry" />
        </mxCell>
        <mxCell id="xsKrtuF8R7khBSsW89uz-85" style="edgeStyle=orthogonalEdgeStyle;rounded=0;orthogonalLoop=1;jettySize=auto;html=1;exitX=0.25;exitY=0;exitDx=0;exitDy=0;entryX=0.692;entryY=0.995;entryDx=0;entryDy=0;entryPerimeter=0;" parent="1" source="xsKrtuF8R7khBSsW89uz-78" target="xsKrtuF8R7khBSsW89uz-82" edge="1">
          <mxGeometry relative="1" as="geometry" />
        </mxCell>
        <mxCell id="xsKrtuF8R7khBSsW89uz-86" style="edgeStyle=orthogonalEdgeStyle;rounded=0;orthogonalLoop=1;jettySize=auto;html=1;exitX=0.5;exitY=0;exitDx=0;exitDy=0;entryX=0.27;entryY=0.972;entryDx=0;entryDy=0;entryPerimeter=0;" parent="1" source="xsKrtuF8R7khBSsW89uz-78" target="xsKrtuF8R7khBSsW89uz-83" edge="1">
          <mxGeometry relative="1" as="geometry" />
        </mxCell>
        <mxCell id="xsKrtuF8R7khBSsW89uz-87" style="edgeStyle=orthogonalEdgeStyle;rounded=0;orthogonalLoop=1;jettySize=auto;html=1;exitX=0;exitY=1;exitDx=0;exitDy=0;entryX=0.716;entryY=0.038;entryDx=0;entryDy=0;entryPerimeter=0;" parent="1" source="xsKrtuF8R7khBSsW89uz-34" target="xsKrtuF8R7khBSsW89uz-39" edge="1">
          <mxGeometry relative="1" as="geometry" />
        </mxCell>
        <mxCell id="xsKrtuF8R7khBSsW89uz-88" style="edgeStyle=orthogonalEdgeStyle;rounded=0;orthogonalLoop=1;jettySize=auto;html=1;exitX=1;exitY=0.5;exitDx=0;exitDy=0;" parent="1" source="xsKrtuF8R7khBSsW89uz-89" edge="1">
          <mxGeometry relative="1" as="geometry">
            <Array as="points">
              <mxPoint x="30" y="-430" />
              <mxPoint x="30" y="-560" />
              <mxPoint x="140" y="-560" />
              <mxPoint x="140" y="-710" />
              <mxPoint x="160" y="-710" />
              <mxPoint x="160" y="-750" />
            </Array>
            <mxPoint x="160" y="-750" as="targetPoint" />
          </mxGeometry>
        </mxCell>
        <mxCell id="xsKrtuF8R7khBSsW89uz-89" value="Recruit" style="rhombus;whiteSpace=wrap;html=1;fillColor=#f8cecc;strokeColor=#b85450;" parent="1" vertex="1">
          <mxGeometry x="-210" y="-470" width="100" height="80" as="geometry" />
        </mxCell>
        <mxCell id="xsKrtuF8R7khBSsW89uz-90" style="edgeStyle=orthogonalEdgeStyle;rounded=0;orthogonalLoop=1;jettySize=auto;html=1;exitX=0.5;exitY=1;exitDx=0;exitDy=0;entryX=0;entryY=0;entryDx=0;entryDy=0;" parent="1" source="xsKrtuF8R7khBSsW89uz-91" target="xsKrtuF8R7khBSsW89uz-57" edge="1">
          <mxGeometry relative="1" as="geometry" />
        </mxCell>
        <mxCell id="xsKrtuF8R7khBSsW89uz-91" value="Creates" style="rhombus;whiteSpace=wrap;html=1;fillColor=#f8cecc;strokeColor=#b85450;" parent="1" vertex="1">
          <mxGeometry x="430" y="-540" width="100" height="80" as="geometry" />
        </mxCell>
        <mxCell id="5Mns1_xmrZh6HJrWHaOm-1" value="W_Passport" style="ellipse;whiteSpace=wrap;html=1;fillColor=#dae8fc;strokeColor=#6c8ebf;" vertex="1" parent="1">
          <mxGeometry x="-170" y="-900" width="120" height="60" as="geometry" />
        </mxCell>
        <mxCell id="xsKrtuF8R7khBSsW89uz-192" style="edgeStyle=orthogonalEdgeStyle;rounded=0;orthogonalLoop=1;jettySize=auto;html=1;exitX=1;exitY=0.5;exitDx=0;exitDy=0;entryX=0;entryY=0.5;entryDx=0;entryDy=0;" edge="1" parent="1" source="xsKrtuF8R7khBSsW89uz-184" target="xsKrtuF8R7khBSsW89uz-188">
          <mxGeometry relative="1" as="geometry" />
        </mxCell>
        <mxCell id="5Mns1_xmrZh6HJrWHaOm-3" style="edgeStyle=orthogonalEdgeStyle;rounded=0;orthogonalLoop=1;jettySize=auto;html=1;exitX=0;exitY=0.5;exitDx=0;exitDy=0;entryX=1;entryY=0.5;entryDx=0;entryDy=0;" edge="1" parent="1" source="xsKrtuF8R7khBSsW89uz-18" target="5Mns1_xmrZh6HJrWHaOm-1">
          <mxGeometry relative="1" as="geometry">
            <mxPoint x="150" y="-790" as="sourcePoint" />
            <mxPoint x="56" y="-881" as="targetPoint" />
            <Array as="points">
              <mxPoint x="140" y="-790" />
              <mxPoint x="30" y="-790" />
              <mxPoint x="30" y="-870" />
            </Array>
          </mxGeometry>
        </mxCell>
        <mxCell id="xsKrtuF8R7khBSsW89uz-195" style="edgeStyle=orthogonalEdgeStyle;rounded=0;orthogonalLoop=1;jettySize=auto;html=1;exitX=0;exitY=1;exitDx=0;exitDy=0;entryX=1;entryY=0;entryDx=0;entryDy=0;" edge="1" parent="1" source="xsKrtuF8R7khBSsW89uz-184" target="xsKrtuF8R7khBSsW89uz-185">
          <mxGeometry relative="1" as="geometry" />
        </mxCell>
        <mxCell id="xsKrtuF8R7khBSsW89uz-196" style="edgeStyle=orthogonalEdgeStyle;rounded=0;orthogonalLoop=1;jettySize=auto;html=1;entryX=1;entryY=0.5;entryDx=0;entryDy=0;" edge="1" parent="1" source="xsKrtuF8R7khBSsW89uz-184" target="xsKrtuF8R7khBSsW89uz-186">
          <mxGeometry relative="1" as="geometry" />
        </mxCell>
        <mxCell id="xsKrtuF8R7khBSsW89uz-184" value="Visa Appliction" style="rounded=0;whiteSpace=wrap;html=1;fillColor=#d5e8d4;strokeColor=#82b366;" vertex="1" parent="1">
          <mxGeometry x="945" y="380" width="120" height="60" as="geometry" />
        </mxCell>
        <mxCell id="xsKrtuF8R7khBSsW89uz-185" value="ApplicationStatus" style="ellipse;whiteSpace=wrap;html=1;fillColor=#dae8fc;strokeColor=#6c8ebf;" vertex="1" parent="1">
          <mxGeometry x="810" y="250" width="120" height="60" as="geometry" />
        </mxCell>
        <mxCell id="xsKrtuF8R7khBSsW89uz-186" value="Worker_ID" style="ellipse;whiteSpace=wrap;html=1;fillColor=#dae8fc;strokeColor=#6c8ebf;" vertex="1" parent="1">
          <mxGeometry x="430" y="430" width="120" height="60" as="geometry" />
        </mxCell>
        <mxCell id="xsKrtuF8R7khBSsW89uz-187" value="VisaType" style="ellipse;whiteSpace=wrap;html=1;fillColor=#dae8fc;strokeColor=#6c8ebf;" vertex="1" parent="1">
          <mxGeometry x="910" y="170" width="120" height="60" as="geometry" />
        </mxCell>
        <mxCell id="xsKrtuF8R7khBSsW89uz-188" value="VisaApplication_ID" style="ellipse;whiteSpace=wrap;html=1;fillColor=#dae8fc;strokeColor=#6c8ebf;" vertex="1" parent="1">
          <mxGeometry x="1080" y="10" width="120" height="60" as="geometry" />
        </mxCell>
        <mxCell id="xsKrtuF8R7khBSsW89uz-189" value="VisaType" style="ellipse;whiteSpace=wrap;html=1;fillColor=#dae8fc;strokeColor=#6c8ebf;" vertex="1" parent="1">
          <mxGeometry x="1060" y="160" width="120" height="60" as="geometry" />
        </mxCell>
        <mxCell id="xsKrtuF8R7khBSsW89uz-190" value="VisaExpirationDate" style="ellipse;whiteSpace=wrap;html=1;fillColor=#dae8fc;strokeColor=#6c8ebf;" vertex="1" parent="1">
          <mxGeometry x="960" y="-120" width="120" height="60" as="geometry" />
        </mxCell>
        <mxCell id="xsKrtuF8R7khBSsW89uz-191" style="edgeStyle=orthogonalEdgeStyle;rounded=0;orthogonalLoop=1;jettySize=auto;html=1;exitX=0.75;exitY=0;exitDx=0;exitDy=0;entryX=0.365;entryY=0.953;entryDx=0;entryDy=0;entryPerimeter=0;" edge="1" parent="1" source="xsKrtuF8R7khBSsW89uz-184" target="xsKrtuF8R7khBSsW89uz-190">
          <mxGeometry relative="1" as="geometry" />
        </mxCell>
        <mxCell id="xsKrtuF8R7khBSsW89uz-193" style="edgeStyle=orthogonalEdgeStyle;rounded=0;orthogonalLoop=1;jettySize=auto;html=1;exitX=1;exitY=1;exitDx=0;exitDy=0;entryX=0.185;entryY=0.033;entryDx=0;entryDy=0;entryPerimeter=0;" edge="1" parent="1" source="xsKrtuF8R7khBSsW89uz-184" target="xsKrtuF8R7khBSsW89uz-189">
          <mxGeometry relative="1" as="geometry" />
        </mxCell>
        <mxCell id="xsKrtuF8R7khBSsW89uz-194" style="edgeStyle=orthogonalEdgeStyle;rounded=0;orthogonalLoop=1;jettySize=auto;html=1;entryX=0.555;entryY=-0.053;entryDx=0;entryDy=0;entryPerimeter=0;" edge="1" parent="1" source="xsKrtuF8R7khBSsW89uz-184" target="xsKrtuF8R7khBSsW89uz-187">
          <mxGeometry relative="1" as="geometry" />
        </mxCell>
      </root>
    </mxGraphModel>
  </diagram>
</mxfile>
